HIERARCHY
ROOT Hips
{
	OFFSET 0.000000 0.000000 0.000000
	CHANNELS 6 Xposition Yposition Zposition Zrotation Yrotation Xrotation 
	JOINT LowerBack
	{
		OFFSET 0.000000 0.000000 0.000000
		CHANNELS 3 Zrotation Yrotation Xrotation
		JOINT Spine
		{
			OFFSET 0.028270 2.035590 -0.193380
			CHANNELS 3 Zrotation Yrotation Xrotation
			JOINT Spine1
			{
				OFFSET 0.056720 2.048850 -0.042750
				CHANNELS 3 Zrotation Yrotation Xrotation
				JOINT Neck
				{
					OFFSET 0.000000 0.000000 0.000000
					CHANNELS 3 Zrotation Yrotation Xrotation
					JOINT Neck1
					{
						OFFSET -0.054170 1.746240 0.172020
						CHANNELS 3 Zrotation Yrotation Xrotation
						JOINT Head
						{
							OFFSET 0.104070 1.761360 -0.123970
							CHANNELS 3 Zrotation Yrotation Xrotation
							End Site
							{
								OFFSET 0.000000 0.000000 0.000000
							}
						}
					}
				}
				JOINT LeftShoulder
				{
					OFFSET 0.000000 0.000000 0.000000
					CHANNELS 3 Zrotation Yrotation Xrotation
					JOINT LeftArm
					{
						OFFSET 3.362410 1.200890 -0.311210
						CHANNELS 3 Zrotation Yrotation Xrotation
						JOINT LeftForeArm
						{
							OFFSET 4.983000 -0.000000 -0.000000
							CHANNELS 3 Zrotation Yrotation Xrotation
							JOINT LeftHand
							{
								OFFSET 3.483560 -0.000000 -0.000000
								CHANNELS 3 Zrotation Yrotation Xrotation
								JOINT LeftFingerBase
								{
									OFFSET 0.000000 0.000000 0.000000
									CHANNELS 3 Zrotation Yrotation Xrotation
									JOINT LeftHandIndex1
									{
										OFFSET 0.715260 -0.000000 -0.000000
										CHANNELS 3 Zrotation Yrotation Xrotation
										End Site
										{
											OFFSET 0.000000 0.000000 0.000000
										}
									}
								}
								JOINT LThumb
								{
									OFFSET 0.000000 0.000000 0.000000
									CHANNELS 3 Zrotation Yrotation Xrotation
									End Site
									{
										OFFSET 0.000000 0.000000 0.000000
									}
								}
							}
						}
					}
				}
				JOINT RightShoulder
				{
					OFFSET 0.000000 0.000000 0.000000
					CHANNELS 3 Zrotation Yrotation Xrotation
					JOINT RightArm
					{
						OFFSET -3.136600 1.374050 -0.404650
						CHANNELS 3 Zrotation Yrotation Xrotation
						JOINT RightForeArm
						{
							OFFSET -5.241900 -0.000000 -0.000000
							CHANNELS 3 Zrotation Yrotation Xrotation
							JOINT RightHand
							{
								OFFSET -3.444170 -0.000000 -0.000000
								CHANNELS 3 Zrotation Yrotation Xrotation
								JOINT RightFingerBase
								{
									OFFSET 0.000000 0.000000 0.000000
									CHANNELS 3 Zrotation Yrotation Xrotation
									JOINT RightHandIndex1
									{
										OFFSET -0.622530 -0.000000 -0.000000
										CHANNELS 3 Zrotation Yrotation Xrotation
										End Site
										{
											OFFSET 0.000000 0.000000 0.000000
										}
									}
								}
								JOINT RThumb
								{
									OFFSET 0.000000 0.000000 0.000000
									CHANNELS 3 Zrotation Yrotation Xrotation
									End Site
									{
										OFFSET 0.000000 0.000000 0.000000
									}
								}
							}
						}
					}
				}
			}
		}
	}
}
}
MOTION
Frames: 17
Frame Time: 0.008333
4.199314 17.328516 -1.202080 151.853507 -80.176789 -143.248465 -6.982754 -1.467127 -5.492293 -2.106334 -1.121920 -3.301612 -6.149270 -1.172586 2.577378 9.563536 -14.941938 -6.952236 -2.466808 -0.210886 0.215995 0.000000 0.000000 0.000000 2.119556 18.624854 -0.277111 -67.698784 21.517697 -11.191861 -1.835335 -57.819406 0.015985 17.409172 -7.440065 -1.166635 -0.262460 0.074503 -0.000000 0.000000 0.000000 0.000000 0.000000 0.000000 0.000000 11.722217 -10.127656 -2.236560 72.835713 -6.045361 -6.789736 1.147918 63.311817 -0.019560 -12.050403 10.823380 -1.193025 0.190456 -0.287656 0.000000 0.000000 0.000000 0.000000 0.000000 0.000000 0.000000 
4.230356 17.343428 -1.239822 150.329671 -80.296900 -141.685901 -7.190105 -1.435593 -5.289911 -2.148714 -1.069369 -3.255022 -6.142897 -1.116305 2.596103 9.561606 -14.995100 -7.053781 -2.440736 -0.207149 0.186198 0.000000 0.000000 0.000000 2.062857 18.792979 -0.265523 -67.770161 21.430631 -11.356593 -1.805004 -58.321432 0.015324 17.429351 -7.454848 -1.170927 -0.263940 0.077572 -0.000000 0.000000 0.000000 0.000000 0.000000 0.000000 0.000000 11.641299 -10.135670 -2.189512 73.006869 -6.098224 -7.164395 1.152312 63.206896 -0.020479 -12.302096 10.693121 -1.203626 0.193894 -0.287124 0.000000 0.000000 0.000000 0.000000 0.000000 0.000000 0.000000 
4.262152 17.359037 -1.274662 148.623751 -80.500461 -139.872948 -7.384026 -1.411044 -5.095396 -2.188646 -1.025186 -3.213174 -6.138440 -1.068796 2.605320 9.588021 -15.032038 -7.169593 -2.417905 -0.203494 0.153047 0.000000 0.000000 0.000000 2.023841 18.882840 -0.243339 -67.862975 21.278455 -11.578010 -1.771936 -58.834283 0.014453 17.473879 -7.475121 -1.177721 -0.265056 0.081154 -0.000000 0.000000 0.000000 0.000000 0.000000 0.000000 0.000000 11.593310 -10.129254 -2.127942 73.127590 -6.137284 -7.527611 1.156666 63.095058 -0.021353 -12.534464 10.549528 -1.210230 0.196966 -0.286204 0.000000 0.000000 0.000000 0.000000 0.000000 0.000000 0.000000 
4.293621 17.375240 -1.306676 146.737379 -80.784576 -137.792541 -7.555664 -1.394301 -4.928846 -2.223684 -0.991110 -3.179033 -6.133163 -1.032145 2.609914 9.638483 -15.078340 -7.304130 -2.395494 -0.199668 0.115645 0.000000 0.000000 0.000000 2.003056 18.899523 -0.212967 -67.973750 21.070310 -11.833810 -1.736668 -59.349851 0.013375 17.540706 -7.502564 -1.187216 -0.265860 0.085272 -0.000000 0.000000 0.000000 0.000000 0.000000 0.000000 0.000000 11.567264 -10.136755 -2.052270 73.195423 -6.137886 -7.839418 1.162321 62.956923 -0.022098 -12.740334 10.409736 -1.214135 0.199650 -0.284967 0.000000 0.000000 0.000000 0.000000 0.000000 0.000000 0.000000 
4.324302 17.391884 -1.336258 144.581360 -81.152879 -135.348614 -7.704995 -1.390973 -4.797428 -2.253510 -0.972836 -3.153858 -6.127101 -1.012241 2.609911 9.713274 -15.129503 -7.456872 -2.373689 -0.195688 0.074110 0.000000 0.000000 0.000000 2.005532 18.845853 -0.173533 -68.098683 20.816062 -12.110048 -1.699612 -59.866528 0.012084 17.626828 -7.534696 -1.198912 -0.266353 0.089906 -0.000000 0.000000 0.000000 0.000000 0.000000 0.000000 0.000000 11.564117 -10.156150 -1.964158 73.210925 -6.105532 -8.092111 1.169003 62.798005 -0.022665 -12.912223 10.287253 -1.216241 0.201829 -0.283503 0.000000 0.000000 0.000000 0.000000 0.000000 0.000000 0.000000 
4.353845 17.408782 -1.363714 142.079759 -81.602657 -132.463072 -7.827351 -1.403750 -4.704257 -2.276964 -0.973450 -3.138385 -6.120026 -1.012266 2.604761 9.809015 -15.179926 -7.626544 -2.352117 -0.191528 0.028722 0.000000 0.000000 0.000000 2.034206 18.724617 -0.124432 -68.233183 20.524701 -12.392056 -1.661237 -60.380720 0.010581 17.728145 -7.570931 -1.212409 -0.266539 0.095040 -0.000000 0.000000 0.000000 0.000000 0.000000 0.000000 0.000000 11.577697 -10.183276 -1.864733 73.180967 -6.047193 -8.286560 1.176442 62.623021 -0.023021 -13.045117 10.194754 -1.217849 0.203420 -0.281941 0.000000 0.000000 0.000000 0.000000 0.000000 0.000000 0.000000 
4.382051 17.425739 -1.389489 139.137856 -82.122537 -129.041642 -7.920440 -1.433388 -4.650277 -2.293465 -0.993863 -3.132683 -6.111527 -1.033126 2.595030 9.921060 -15.228435 -7.812857 -2.329807 -0.187096 -0.020577 0.000000 0.000000 0.000000 2.090246 18.543178 -0.065805 -68.370708 20.198511 -12.663178 -1.622182 -60.884976 0.008873 17.840849 -7.610480 -1.227407 -0.266420 0.100660 -0.000000 0.000000 0.000000 0.000000 0.000000 0.000000 0.000000 11.599202 -10.217944 -1.755095 73.117303 -5.962096 -8.424296 1.184564 62.431786 -0.023153 -13.138032 10.142512 -1.220258 0.204403 -0.280413 0.000000 0.000000 0.000000 0.000000 0.000000 0.000000 0.000000 
4.408873 17.442549 -1.414110 135.645528 -82.693953 -124.977699 -7.983820 -1.478364 -4.632258 -2.303027 -1.032562 -3.136169 -6.101593 -1.073213 2.580906 10.044771 -15.272880 -8.015077 -2.305843 -0.182297 -0.073817 0.000000 0.000000 0.000000 2.174122 18.308604 0.002005 -68.503943 19.836952 -12.909395 -1.583126 -61.370161 0.006956 17.960352 -7.652862 -1.243406 -0.265988 0.106745 -0.000000 0.000000 0.000000 0.000000 0.000000 0.000000 0.000000 11.619620 -10.258027 -1.635861 73.035646 -5.850467 -8.514295 1.193239 62.224684 -0.023071 -13.192845 10.136611 -1.224466 0.204798 -0.279038 0.000000 0.000000 0.000000 0.000000 0.000000 0.000000 0.000000 
4.434697 17.459111 -1.438135 131.484011 -83.291323 -120.161300 -8.020287 -1.535131 -4.643025 -2.306534 -1.085794 -3.147703 -6.090792 -1.128634 2.561940 10.176134 -15.310078 -8.232114 -2.279701 -0.177063 -0.131023 0.000000 0.000000 0.000000 2.285994 18.027301 0.078445 -68.625517 19.436127 -13.121331 -1.544657 -61.826708 0.004835 18.082579 -7.697300 -1.260108 -0.265214 0.113269 -0.000000 0.000000 0.000000 0.000000 0.000000 0.000000 0.000000 11.632022 -10.299237 -1.507317 72.953047 -5.712149 -8.571321 1.202175 62.003096 -0.022810 -13.213618 10.177253 -1.231075 0.204642 -0.277916 0.000000 0.000000 0.000000 0.000000 0.000000 0.000000 0.000000 
4.459548 17.475339 -1.462130 126.583080 -83.878906 -114.522983 -8.035350 -1.596962 -4.683285 -2.305297 -1.146500 -3.167153 -6.078742 -1.192313 2.540701 10.310826 -15.350110 -8.465361 -2.249767 -0.171215 -0.192795 0.000000 0.000000 0.000000 2.421924 17.711663 0.161170 -68.726807 18.985831 -13.287351 -1.507476 -62.242075 0.002517 18.204424 -7.743514 -1.277212 -0.264108 0.120213 -0.000000 0.000000 0.000000 0.000000 0.000000 0.000000 0.000000 11.627902 -10.350038 -1.369545 72.885183 -5.533774 -8.600501 1.211706 61.759853 -0.022417 -13.207314 10.258193 -1.239985 0.204067 -0.277096 0.000000 0.000000 0.000000 0.000000 0.000000 0.000000 0.000000 
4.485030 17.491450 -1.487093 120.749386 -84.420547 -107.897934 -8.053139 -1.661154 -4.720588 -2.305457 -1.210238 -3.190616 -6.070530 -1.259553 2.507008 10.454340 -15.353558 -8.705693 -2.220885 -0.165179 -0.257515 0.000000 0.000000 0.000000 2.590325 17.345158 0.253365 -68.806741 18.491316 -13.427105 -1.471101 -62.620905 -0.000010 18.322243 -7.788472 -1.294021 -0.262509 0.127498 -0.000000 0.000000 0.000000 0.000000 0.000000 0.000000 0.000000 11.623716 -10.367459 -1.221400 72.847244 -5.351451 -8.654764 1.219533 61.525532 -0.021980 -13.176954 10.372251 -1.250496 0.202947 -0.276652 0.000000 0.000000 0.000000 0.000000 0.000000 0.000000 0.000000 
4.510769 17.507355 -1.513048 114.162159 -84.868544 -100.449338 -8.085052 -1.718397 -4.775417 -2.308565 -1.267016 -3.220387 -6.062214 -1.320727 2.470254 10.599675 -15.360094 -8.960665 -2.188637 -0.158489 -0.327152 0.000000 0.000000 0.000000 2.777259 16.955199 0.349487 -68.854250 17.929372 -13.520056 -1.436551 -62.945125 -0.002730 18.435410 -7.832759 -1.310536 -0.260546 0.135144 -0.000000 0.000000 0.000000 0.000000 0.000000 0.000000 0.000000 11.604488 -10.390090 -1.063448 72.845780 -5.121882 -8.709649 1.227088 61.274514 -0.021549 -13.133352 10.501970 -1.261507 0.201565 -0.276543 0.000000 0.000000 0.000000 0.000000 0.000000 0.000000 0.000000 
4.537554 17.523239 -1.540488 106.967070 -85.183876 -92.332363 -8.161913 -1.767837 -4.833322 -2.321144 -1.313728 -3.254937 -6.055680 -1.372839 2.424827 10.749975 -15.351590 -9.224731 -2.156246 -0.151425 -0.400798 0.000000 0.000000 0.000000 2.981592 16.530654 0.450879 -68.867282 17.303510 -13.582516 -1.403399 -63.221367 -0.005642 18.542258 -7.873337 -1.326154 -0.258184 0.143086 0.000000 0.000000 0.000000 0.000000 0.000000 0.000000 0.000000 11.583166 -10.398297 -0.894979 72.884362 -4.863334 -8.794794 1.232761 61.026517 -0.021215 -13.080252 10.632046 -1.271620 0.199874 -0.276765 0.000000 0.000000 0.000000 0.000000 0.000000 0.000000 0.000000 
4.565948 17.539209 -1.569440 99.515259 -85.338307 -83.900596 -8.307973 -1.812091 -4.889663 -2.347744 -1.351129 -3.293478 -6.050262 -1.416773 2.369124 10.905470 -15.327472 -9.495928 -2.125099 -0.144095 -0.478336 0.000000 0.000000 0.000000 3.196881 16.067709 0.557496 -68.843500 16.611719 -13.622267 -1.371483 -63.453947 -0.008738 18.643130 -7.908521 -1.340478 -0.255483 0.151306 0.000000 0.000000 0.000000 0.000000 0.000000 0.000000 0.000000 11.566695 -10.392717 -0.716325 72.958937 -4.577371 -8.917605 1.235495 60.790053 -0.021047 -13.022443 10.746913 -1.279336 0.197877 -0.277281 0.000000 0.000000 0.000000 0.000000 0.000000 0.000000 0.000000 
4.596111 17.555305 -1.599797 92.247156 -85.320445 -75.592694 -8.537201 -1.857486 -4.942540 -2.390903 -1.384344 -3.334992 -6.044918 -1.457604 2.303702 11.066748 -15.293050 -9.773920 -2.096307 -0.136577 -0.560050 0.000000 0.000000 0.000000 3.416679 15.567186 0.669046 -68.781260 15.848517 -13.643552 -1.340831 -63.645719 -0.012011 18.739318 -7.937503 -1.353608 -0.252550 0.159817 -0.000000 0.000000 0.000000 0.000000 0.000000 0.000000 0.000000 11.563409 -10.382116 -0.528906 73.059083 -4.260406 -9.074138 1.234367 60.571331 -0.021106 -12.965700 10.832824 -1.283655 0.195597 -0.278035 0.000000 0.000000 0.000000 0.000000 0.000000 0.000000 0.000000 
4.621874 17.570106 -1.624254 79.577215 -85.143296 -61.853330 -8.654107 -2.015529 -4.950597 -2.392802 -1.542297 -3.369302 -6.013430 -1.624617 2.228546 11.165856 -15.246743 -10.038385 -2.069038 -0.128883 -0.637884 0.000000 0.000000 0.000000 3.550951 14.959787 0.797017 -68.693106 15.063057 -13.619874 -1.318285 -63.829778 -0.015672 18.831397 -7.955158 -1.364639 -0.249197 0.169133 0.000000 0.000000 0.000000 0.000000 0.000000 0.000000 0.000000 11.493633 -10.444318 -0.351358 73.114866 -4.008285 -9.243234 1.217907 60.406579 -0.021202 -12.912726 10.876216 -1.283288 0.193254 -0.277988 0.000000 0.000000 0.000000 0.000000 0.000000 0.000000 0.000000 
4.655114 17.586548 -1.656533 74.145407 -84.709222 -55.264462 -9.068425 -2.091108 -4.983322 -2.473225 -1.593087 -3.413339 -6.009193 -1.684485 2.137290 11.340525 -15.184666 -10.319638 -2.052915 -0.121820 -0.726099 0.000000 0.000000 0.000000 3.757095 14.355163 0.919624 -68.550896 14.188672 -13.635854 -1.289204 -63.978978 -0.019233 18.921344 -7.968590 -1.374877 -0.246081 0.178073 0.000000 0.000000 0.000000 0.000000 0.000000 0.000000 0.000000 11.553642 -10.428344 -0.150264 73.216283 -3.657366 -9.464046 1.206238 60.262088 -0.021805 -12.864437 10.881872 -1.279015 0.190281 -0.279052 0.000000 0.000000 0.000000 0.000000 0.000000 0.000000 0.000000 
